<svg width="14" height="14" viewBox="0 0 14 14" fill="none" xmlns="http://www.w3.org/2000/svg">
<path d="M7.62533 1.16675C7.62533 0.82157 7.3455 0.541748 7.00033 0.541748C6.65515 0.541748 6.37533 0.82157 6.37533 1.16675V6.37508H1.16699C0.821814 6.37508 0.541992 6.6549 0.541992 7.00008C0.541992 7.34526 0.821814 7.62508 1.16699 7.62508H6.37533V12.8334C6.37533 13.1786 6.65515 13.4584 7.00033 13.4584C7.3455 13.4584 7.62533 13.1786 7.62533 12.8334V7.62508H12.8337C13.1788 7.62508 13.4587 7.34526 13.4587 7.00008C13.4587 6.6549 13.1788 6.37508 12.8337 6.37508H7.62533V1.16675Z" fill="white"/>
</svg>
