<svg width="18" height="17" viewBox="0 0 18 17" fill="none" xmlns="http://www.w3.org/2000/svg">
<path d="M4.83366 7.66667C5.2939 7.66667 5.66699 7.29357 5.66699 6.83333C5.66699 6.3731 5.2939 6 4.83366 6C4.37342 6 4.00033 6.3731 4.00033 6.83333C4.00033 7.29357 4.37342 7.66667 4.83366 7.66667Z" fill="#01AFEC"/>
<path d="M9.83366 6.83333C9.83366 7.29357 9.46056 7.66667 9.00033 7.66667C8.54009 7.66667 8.16699 7.29357 8.16699 6.83333C8.16699 6.3731 8.54009 6 9.00033 6C9.46056 6 9.83366 6.3731 9.83366 6.83333Z" fill="#01AFEC"/>
<path d="M13.167 7.66667C13.6272 7.66667 14.0003 7.29357 14.0003 6.83333C14.0003 6.3731 13.6272 6 13.167 6C12.7068 6 12.3337 6.3731 12.3337 6.83333C12.3337 7.29357 12.7068 7.66667 13.167 7.66667Z" fill="#01AFEC"/>
<path d="M5.66699 9.75C5.66699 10.2102 5.2939 10.5833 4.83366 10.5833C4.37342 10.5833 4.00033 10.2102 4.00033 9.75C4.00033 9.28976 4.37342 8.91667 4.83366 8.91667C5.2939 8.91667 5.66699 9.28976 5.66699 9.75Z" fill="#01AFEC"/>
<path d="M9.00033 10.5833C9.46056 10.5833 9.83366 10.2102 9.83366 9.75C9.83366 9.28976 9.46056 8.91667 9.00033 8.91667C8.54009 8.91667 8.16699 9.28976 8.16699 9.75C8.16699 10.2102 8.54009 10.5833 9.00033 10.5833Z" fill="#01AFEC"/>
<path d="M14.0003 9.75C14.0003 10.2102 13.6272 10.5833 13.167 10.5833C12.7068 10.5833 12.3337 10.2102 12.3337 9.75C12.3337 9.28976 12.7068 8.91667 13.167 8.91667C13.6272 8.91667 14.0003 9.28976 14.0003 9.75Z" fill="#01AFEC"/>
<path d="M4.83366 13.5C5.2939 13.5 5.66699 13.1269 5.66699 12.6667C5.66699 12.2064 5.2939 11.8333 4.83366 11.8333C4.37342 11.8333 4.00033 12.2064 4.00033 12.6667C4.00033 13.1269 4.37342 13.5 4.83366 13.5Z" fill="#01AFEC"/>
<path d="M9.83366 12.6667C9.83366 13.1269 9.46056 13.5 9.00033 13.5C8.54009 13.5 8.16699 13.1269 8.16699 12.6667C8.16699 12.2064 8.54009 11.8333 9.00033 11.8333C9.46056 11.8333 9.83366 12.2064 9.83366 12.6667Z" fill="#01AFEC"/>
<path d="M13.167 13.5C13.6272 13.5 14.0003 13.1269 14.0003 12.6667C14.0003 12.2064 13.6272 11.8333 13.167 11.8333C12.7068 11.8333 12.3337 12.2064 12.3337 12.6667C12.3337 13.1269 12.7068 13.5 13.167 13.5Z" fill="#01AFEC"/>
<path fill-rule="evenodd" clip-rule="evenodd" d="M5.45866 1C5.45866 0.654822 5.17884 0.375 4.83366 0.375C4.48848 0.375 4.20866 0.654822 4.20866 1H4.00033C2.15938 1 0.666992 2.49238 0.666992 4.33333V13.5C0.666992 15.341 2.15938 16.8333 4.00033 16.8333H14.0003C15.8413 16.8333 17.3337 15.341 17.3337 13.5V4.33333C17.3337 2.49238 15.8413 1 14.0003 1H13.792C13.792 0.654822 13.5122 0.375 13.167 0.375C12.8218 0.375 12.542 0.654822 12.542 1H5.45866ZM12.542 3.5V2.25H5.45866V3.5C5.45866 3.84518 5.17884 4.125 4.83366 4.125C4.48848 4.125 4.20866 3.84518 4.20866 3.5V2.25H4.00033C2.84973 2.25 1.91699 3.18274 1.91699 4.33333V13.5C1.91699 14.6506 2.84973 15.5833 4.00033 15.5833H14.0003C15.1509 15.5833 16.0837 14.6506 16.0837 13.5V4.33333C16.0837 3.18274 15.1509 2.25 14.0003 2.25H13.792V3.5C13.792 3.84518 13.5122 4.125 13.167 4.125C12.8218 4.125 12.542 3.84518 12.542 3.5Z" fill="#01AFEC"/>
</svg>
