<svg width="14" height="18" viewBox="0 0 14 18" fill="none" xmlns="http://www.w3.org/2000/svg">
<path d="M6.37533 11.5C6.37533 11.8452 6.65515 12.125 7.00033 12.125C7.3455 12.125 7.62533 11.8452 7.62533 11.5V8.00888L8.22505 8.60861C8.46913 8.85269 8.86486 8.85269 9.10893 8.60861C9.35301 8.36453 9.35301 7.9688 9.10893 7.72473L7.44227 6.05806C7.38234 5.99814 7.31328 5.95292 7.23957 5.92242C7.16587 5.89187 7.08507 5.875 7.00033 5.875C6.91558 5.875 6.83478 5.89187 6.76109 5.92242C6.68737 5.95292 6.61831 5.99814 6.55838 6.05806L4.89172 7.72473C4.64764 7.9688 4.64764 8.36453 4.89172 8.60861C5.1358 8.85269 5.53152 8.85269 5.7756 8.60861L6.37533 8.00888L6.37533 11.5Z" fill="white"/>
<path fill-rule="evenodd" clip-rule="evenodd" d="M0.541992 4.83333C0.541992 2.64721 2.3142 0.875 4.50033 0.875H8.11961C9.16943 0.875 10.1762 1.29204 10.9186 2.03437L12.2993 3.41508C13.0416 4.15741 13.4587 5.16423 13.4587 6.21405V13.1667C13.4587 15.3528 11.6865 17.125 9.50033 17.125H4.50033C2.3142 17.125 0.541992 15.3528 0.541992 13.1667V4.83333ZM4.50033 2.125C3.00455 2.125 1.79199 3.33756 1.79199 4.83333V13.1667C1.79199 14.6624 3.00455 15.875 4.50033 15.875H9.50033C10.9961 15.875 12.2087 14.6624 12.2087 13.1667V6.21405C12.2087 5.49575 11.9233 4.80688 11.4154 4.29897L10.0347 2.91825C9.52678 2.41034 8.83791 2.125 8.11961 2.125H4.50033Z" fill="white"/>
</svg>
