<svg width="14" height="18" viewBox="0 0 14 18" fill="none" xmlns="http://www.w3.org/2000/svg">
<path d="M7.00033 5.875C7.3455 5.875 7.62533 6.15482 7.62533 6.5V9.99112L8.22505 9.39139C8.46913 9.14731 8.86486 9.14731 9.10893 9.39139C9.35301 9.63547 9.35301 10.0312 9.10893 10.2753L7.44227 11.9419C7.38234 12.0019 7.31328 12.0471 7.23957 12.0776C7.16587 12.1081 7.08507 12.125 7.00033 12.125C6.91558 12.125 6.83478 12.1081 6.76109 12.0776C6.68737 12.0471 6.61831 12.0019 6.55838 11.9419L4.89172 10.2753C4.64764 10.0312 4.64764 9.63547 4.89172 9.39139C5.1358 9.14731 5.53152 9.14731 5.7756 9.39139L6.37533 9.99112L6.37533 6.5C6.37533 6.15482 6.65515 5.875 7.00033 5.875Z" fill="white"/>
<path fill-rule="evenodd" clip-rule="evenodd" d="M0.541992 4.83333C0.541992 2.64721 2.3142 0.875 4.50033 0.875H8.11961C9.16943 0.875 10.1762 1.29204 10.9186 2.03437L12.2993 3.41508C13.0416 4.15741 13.4587 5.16423 13.4587 6.21405V13.1667C13.4587 15.3528 11.6865 17.125 9.50033 17.125H4.50033C2.3142 17.125 0.541992 15.3528 0.541992 13.1667V4.83333ZM4.50033 2.125C3.00455 2.125 1.79199 3.33756 1.79199 4.83333V13.1667C1.79199 14.6624 3.00455 15.875 4.50033 15.875H9.50033C10.9961 15.875 12.2087 14.6624 12.2087 13.1667V6.21405C12.2087 5.49575 11.9233 4.80688 11.4154 4.29897L10.0347 2.91825C9.52678 2.41034 8.83791 2.125 8.11961 2.125H4.50033Z" fill="white"/>
</svg>
