<svg width="14" height="10" viewBox="0 0 14 10" fill="none" xmlns="http://www.w3.org/2000/svg">
<path fill-rule="evenodd" clip-rule="evenodd" d="M4.63325 2.96518C4.42635 3.77569 3.69137 4.375 2.81641 4.375C1.78087 4.375 0.941406 3.53553 0.941406 2.5C0.941406 1.46447 1.78087 0.625 2.81641 0.625C3.69137 0.625 4.42635 1.22431 4.63325 2.03482C4.65231 2.03246 4.67171 2.03125 4.69141 2.03125L12.8164 2.03125C13.0753 2.03125 13.2852 2.24112 13.2852 2.5C13.2852 2.75888 13.0753 2.96875 12.8164 2.96875L4.69141 2.96875C4.67171 2.96875 4.65231 2.96754 4.63325 2.96518ZM3.75391 2.5C3.75391 3.01777 3.33417 3.4375 2.81641 3.4375C2.29864 3.4375 1.87891 3.01777 1.87891 2.5C1.87891 1.98223 2.29864 1.5625 2.81641 1.5625C3.33417 1.5625 3.75391 1.98223 3.75391 2.5Z" fill="#01AFEC"/>
<path fill-rule="evenodd" clip-rule="evenodd" d="M13.4414 7.5C13.4414 8.53553 12.6019 9.375 11.5664 9.375C10.6914 9.375 9.95646 8.77569 9.74956 7.96517C9.73051 7.96753 9.7111 7.96875 9.69141 7.96875L1.56641 7.96875C1.30752 7.96875 1.09766 7.75888 1.09766 7.5C1.09766 7.24112 1.30752 7.03125 1.56641 7.03125L9.69141 7.03125C9.7111 7.03125 9.73051 7.03247 9.74956 7.03482C9.95646 6.22431 10.6914 5.625 11.5664 5.625C12.6019 5.625 13.4414 6.46447 13.4414 7.5ZM12.5039 7.5C12.5039 8.01777 12.0842 8.4375 11.5664 8.4375C11.0486 8.4375 10.6289 8.01777 10.6289 7.5C10.6289 6.98223 11.0486 6.5625 11.5664 6.5625C12.0842 6.5625 12.5039 6.98223 12.5039 7.5Z" fill="#01AFEC"/>
</svg>
