<svg width="23" height="20" viewBox="0 0 23 20" fill="none" xmlns="http://www.w3.org/2000/svg">
<path fill-rule="evenodd" clip-rule="evenodd" d="M11.6914 1.75C7.68734 1.75 4.44141 4.99594 4.44141 9V14C4.44141 14.9665 3.6579 15.75 2.69141 15.75C1.72491 15.75 0.941406 14.9665 0.941406 14V12C0.941406 10.7412 1.78715 9.67998 2.94141 9.35352V9C2.94141 4.16751 6.85891 0.25 11.6914 0.25C16.5239 0.25 20.4414 4.16751 20.4414 9V9.35352C21.5957 9.67998 22.4414 10.7412 22.4414 12V14C22.4414 14.9665 21.6579 15.75 20.6914 15.75C20.4146 15.75 20.1529 15.6858 19.9202 15.5714C18.8963 16.9328 16.5568 18.5406 12.5014 18.7312C12.2448 19.1899 11.7543 19.5 11.1914 19.5C10.363 19.5 9.69141 18.8284 9.69141 18C9.69141 17.1716 10.363 16.5 11.1914 16.5C11.7386 16.5 12.2174 16.7931 12.4794 17.2308C16.7418 17.019 18.5495 15.1118 18.9645 14.285C18.9493 14.1923 18.9414 14.0971 18.9414 14V9C18.9414 4.99594 15.6955 1.75 11.6914 1.75ZM20.4414 10.9999V14C20.4414 14.1381 20.5533 14.25 20.6914 14.25C20.8295 14.25 20.9414 14.1381 20.9414 14V12C20.9414 11.591 20.745 11.228 20.4414 10.9999ZM2.94141 14V10.9999C2.63779 11.228 2.44141 11.591 2.44141 12V14C2.44141 14.1381 2.55334 14.25 2.69141 14.25C2.82948 14.25 2.94141 14.1381 2.94141 14Z" fill="#01AFEC"/>
</svg>
