<svg width="20" height="16" viewBox="0 0 20 16" fill="none" xmlns="http://www.w3.org/2000/svg">
<path d="M0.0996094 1C0.0996094 0.585786 0.435396 0.25 0.849609 0.25H18.8496C19.2638 0.25 19.5996 0.585786 19.5996 1C19.5996 1.41421 19.2638 1.75 18.8496 1.75H0.849609C0.435396 1.75 0.0996094 1.41421 0.0996094 1Z" fill="#495057"/>
<path d="M0.0996094 8C0.0996094 7.58579 0.435396 7.25 0.849609 7.25H18.8496C19.2638 7.25 19.5996 7.58579 19.5996 8C19.5996 8.41421 19.2638 8.75 18.8496 8.75H0.849609C0.435396 8.75 0.0996094 8.41421 0.0996094 8Z" fill="#495057"/>
<path d="M0.849609 14.25C0.435396 14.25 0.0996094 14.5858 0.0996094 15C0.0996094 15.4142 0.435396 15.75 0.849609 15.75H18.8496C19.2638 15.75 19.5996 15.4142 19.5996 15C19.5996 14.5858 19.2638 14.25 18.8496 14.25H0.849609Z" fill="#495057"/>
</svg>
