<svg width="18" height="20" viewBox="0 0 18 20" fill="none" xmlns="http://www.w3.org/2000/svg">
<path fill-rule="evenodd" clip-rule="evenodd" d="M7.21956 1.20887C4.078 1.98312 1.74818 4.81977 1.74818 8.20033V9.5C1.74818 11.2651 1.19866 13.4763 0.667647 15.2009C0.250284 16.5563 1.23936 18 2.65765 18H6.69104C6.69104 18.2626 6.74277 18.5227 6.84328 18.7654C6.94379 19.008 7.09111 19.2285 7.27682 19.4142C7.46254 19.5999 7.68302 19.7472 7.92567 19.8478C8.16832 19.9483 8.42839 20 8.69104 20C8.95368 20 9.21375 19.9483 9.4564 19.8478C9.69906 19.7472 9.91953 19.5999 10.1053 19.4142C10.291 19.2285 10.4383 19.008 10.5388 18.7654C10.6393 18.5227 10.691 18.2626 10.691 18H15.0005C16.3409 18 17.3144 16.7039 17.0081 15.3989C16.5953 13.6401 16.1482 11.3161 16.1482 9.5V8.20033C16.1482 4.6285 13.5473 1.66387 10.136 1.09753C10.1198 1.03932 10.1001 0.98203 10.0769 0.925975C10.0015 0.743986 9.89099 0.578628 9.7517 0.43934C9.61241 0.300052 9.44705 0.189563 9.26506 0.114181C9.08308 0.0387985 8.88802 0 8.69104 0C8.49406 0 8.299 0.0387987 8.11701 0.114181C7.93503 0.189563 7.76967 0.300052 7.63038 0.43934C7.49109 0.578628 7.3806 0.743986 7.30522 0.925975C7.26733 1.01744 7.23869 1.11221 7.21956 1.20887ZM3.24818 8.20033V9.5C3.24818 11.5041 2.63851 13.8973 2.10123 15.6423C2.03797 15.8477 2.07768 16.0699 2.20189 16.2468C2.32247 16.4185 2.48564 16.5 2.65765 16.5H15.0005C15.3193 16.5 15.6458 16.1594 15.5478 15.7417C15.1316 13.9687 14.6482 11.5012 14.6482 9.5V8.20033C14.6482 5.05222 12.0961 2.5 8.94818 2.5C5.80025 2.5 3.24818 5.05222 3.24818 8.20033Z" fill="#01AFEC"/>
</svg>
